<?xml version="1.0" encoding="UTF-8" standalone="no"?>
<!-- Created with Inkscape (http://www.inkscape.org/) -->

<svg
   xmlns:dc="http://purl.org/dc/elements/1.1/"
   xmlns:cc="http://creativecommons.org/ns#"
   xmlns:rdf="http://www.w3.org/1999/02/22-rdf-syntax-ns#"
   xmlns:svg="http://www.w3.org/2000/svg"
   xmlns="http://www.w3.org/2000/svg"
   xmlns:sodipodi="http://sodipodi.sourceforge.net/DTD/sodipodi-0.dtd"
   xmlns:inkscape="http://www.inkscape.org/namespaces/inkscape"
   width="1198.2079mm"
   height="231.4585mm"
   viewBox="0 0 4245.6185 820.12853"
   id="svg2"
   version="1.1"
   inkscape:version="0.91 r13725"
   sodipodi:docname="logo.svg"
   inkscape:export-filename="/home/sophian/TripAroundSite/public/FrontEnd/Pictures/logo.png"
   inkscape:export-xdpi="5.490366"
   inkscape:export-ydpi="5.490366">
  <defs
     id="defs4" />
  <sodipodi:namedview
     id="base"
     pagecolor="#ffffff"
     bordercolor="#666666"
     borderopacity="1.0"
     inkscape:pageopacity="0.0"
     inkscape:pageshadow="2"
     inkscape:zoom="0.082763307"
     inkscape:cx="-397.27064"
     inkscape:cy="-1887.0239"
     inkscape:document-units="px"
     inkscape:current-layer="layer1"
     showgrid="false"
     fit-margin-top="0"
     fit-margin-left="0"
     fit-margin-right="0"
     fit-margin-bottom="0"
     inkscape:window-width="1317"
     inkscape:window-height="744"
     inkscape:window-x="49"
     inkscape:window-y="24"
     inkscape:window-maximized="1" />
  <metadata
     id="metadata7">
    <rdf:RDF>
      <cc:Work
         rdf:about="">
        <dc:format>image/svg+xml</dc:format>
        <dc:type
           rdf:resource="http://purl.org/dc/dcmitype/StillImage" />
        <dc:title />
      </cc:Work>
    </rdf:RDF>
  </metadata>
  <g
     inkscape:label="Layer 1"
     inkscape:groupmode="layer"
     id="layer1"
     transform="translate(-34.483922,-128.8228)">
    <path
       style="fill:#333333;fill-opacity:1"
       d="m 973.911,532.5687 c -4.62985,-3.20394 4.4815,-4.80531 0,0 z m -5.53335,211.875 c -7.88502,-7.07971 6.60422,-4.64986 0,0 z m -9.41314,-88.15808 c -4.66747,33.57304 -0.3612,60.19 -12.91504,90.79519 13.47598,-2.61748 -16.72501,56.48319 -11.25106,18.61289 -0.0115,-14.80498 -11.76621,8.77989 -8.23606,12.9019 -6.57553,11.74264 -27.965,-19.29371 -5.61742,-16.29264 -11.11447,-28.85487 -25.43566,-13.29966 -22.67111,5.37456 -11.59198,10.17085 -24.91406,-3.04785 -21.16836,21.76623 -7.19089,3.79944 1.4437,28.10775 -9.31737,14.40936 5.38372,18.80121 -7.06406,-5.22174 -20.49659,10.35526 -13.26067,-14.85299 -35.70299,45.03506 -58.38103,28.36038 -27.93496,-12.62468 -38.89794,24.98234 -51.25022,47.89904 -14.08159,21.6465 -31.26767,9.24963 -25.51553,7.10096 -14.46515,-5.49596 -20.72462,-4.67228 -37.16772,0.43988 14.48272,-23.12433 -40.31649,-1.38089 -22.32474,24.14345 -32.01472,46.31545 3.68435,-29.33213 -66.23023,-6.59303 -3.68485,-38.3621 -34.84761,9.92212 -60.91081,7.44248 -36.49179,17.10542 -59.8786,15.86388 -83.21984,14.55853 -17.81412,-6.77477 -60.09829,15.25857 -35.16094,-6.30136 -26.47314,5.60403 -19.85925,1.09042 -38.04021,5.23315 -15.11466,2.4344 -24.69526,8.03112 -57.52366,0.34338 -49.70608,-6.3195 -86.22981,-45.12251 -127.12473,-69.89097 -4.13578,19.23372 -22.25212,2.4838 -28.81905,10.82711 1.19599,-6.79136 -14.93767,2.81756 -21.41626,-12.9951 -8.18269,20.81904 -13.35914,8.56952 -18.96058,0.99481 6.20932,-17.4391 -33.081656,16.30348 -19.982339,-9.65058 -26.890459,-11.68702 -33.533743,38.04081 -52.625009,30.98725 -27.905812,-21.11838 23.87239,-56.15939 34.899333,-85.16349 22.313169,-28.08646 14.885137,-71.66908 28.280605,-100.462 -10.459477,-31.19653 3.418,-51.8828 -6.559018,-79.05396 -1.06128,-28.81767 8.971108,-45.70103 -3.680401,-65.13517 10.492779,-12.85734 1.890153,-30.88771 -1.166349,-50.48418 -2.434851,-21.17213 8.056298,-28.50005 -3.021375,-57.06278 -7.144536,-35.83485 2.49163,-75.151 22.518823,-108.51556 15.93108,-21.08609 23.49626,-35.431 42.38221,-50.19546 -0.26802,-13.8256 20.65045,-20.79048 27.19564,-14.40339 13.87463,8.48713 30.86158,-11.91265 33.60405,-4.73472 17.575,-20.40893 3.45168,-21.32927 -12.53,-7.70115 14.63252,-25.60128 -16.98119,-10.95888 -17.45331,-6.58685 -15.99932,-7.58016 31.48937,-18.7986 16.80141,-19.4147 15.43083,-5.78984 38.06197,-14.07663 57.5,-27.38081 17.35175,-13.99085 25.58757,-4.38998 33.07211,-15.96215 10.85592,-7.85668 39.73891,-20.54692 48.22119,-11.94474 -19.32477,6.17622 -74.54126,21.40205 -40.9808,42.68758 11.76838,11.4508 37.8273,-16.30852 51.51727,-14.82669 18.53861,-12.4569 41.53797,-20.82239 59.12868,-28.13351 29.86458,-11.57938 43.26757,-24.93465 84.44746,-26.11708 10.35725,-9.12518 52.32895,-4.65406 34.06987,13.48635 22.86974,3.68962 16.25088,1.74402 39.56105,5.21395 -16.76342,19.94344 -0.44691,9.06129 17.21317,14.89134 -24.87266,10.86316 3.40067,33.16478 -11.2458,43.08245 -5.06156,1.96733 -18.61486,-12.59775 -7.45579,9.56271 18.84287,-1.0828 -24.93231,23.91308 -29.2868,12.45811 14.9833,5.96146 -7.96139,15.4732 -15.01311,8.08467 -11.46636,18.613 -4.40084,-30.17718 -18.09237,1.08973 -2.16231,-11.91305 -34.75336,-0.1667 -22.11909,14.83291 -10.34575,20.49053 -10.17272,-20.42081 -5.29235,-30.73449 2.84679,-6.21499 -50.21369,33.13454 -24.5583,4.13299 27.9285,-22.03606 -35.49278,-5.57931 -2.52689,-23.29603 -10.81537,-15.31869 -38.97767,5.96581 -59.19925,10.98506 -13.69517,-0.83225 -11.04634,22.57312 -23.9603,28.6946 -3.54664,-10.59822 -19.58664,34.00354 -6.77997,36.20465 11.61679,21.031 29.20469,-2.50732 25.52995,-0.21033 5.76677,-6.53504 49.67529,3.50414 40.06184,30.69878 13.15707,-4.25929 35.39207,-18.59492 53.25827,3.68015 43.22616,-0.4004 -11.60454,75.60739 24.31765,38.22716 32.77732,-3.26767 30.09621,-17.19108 47.39968,-40.74767 10.92629,-14.48041 10.25393,19.20725 23.55987,-8.65964 17.86643,-22.36446 15.55956,-39.12959 33.36975,-63.53815 6.49257,-27.78632 -21.23356,-65.0592 -1.67697,-73.96185 0.74851,-9.4479 43.47748,-4.31605 26.43606,20.31419 17.99981,23.66747 5.48947,-20.59154 20.33093,-24.72276 26.45778,-18.40816 10.89637,23.43913 9.54633,37.77113 3.06461,20.11373 17.42268,-20.26101 19.37384,-12.48946 15.29181,-13.42696 30.85746,10.56209 52.82693,10.429 -1.09531,2.63442 -2.99877,19.41757 11.17668,28.51909 -4.40369,6.27163 31.9401,62.9679 0.38133,45.17876 -0.5919,6.83337 5.82467,27.92279 -16.61219,18.39889 -11.52058,-23.84903 -19.6435,32.18667 -33.03532,41.13686 -5.12284,-15.38984 -14.74796,-52.60143 -1.3311,-64.1111 -17.68422,4.65228 -9.09583,-30.04384 -18.17574,0.25189 -1.75864,16.86447 -2.6272,22.38439 -8.311,11.09193 9.81078,16.55279 1.0811,19.33201 -7.54888,28.36912 -8.32008,-8.84788 -0.11814,-18.43854 -6.22152,-36.59391 -2.16607,-20.40989 -13.13175,-69.42108 -8.31313,-21.70877 -8.24853,22.89694 1.83851,43.54021 -12.20274,58.49076 -5.57529,7.07048 -36.35633,0.0174 -18.91115,18.17782 -12.76374,19.86783 -13.58147,24.48174 7.39117,28.37146 15.57539,28.87636 -9.41044,12.20852 -5.84275,31.18113 17.45788,5.31513 -28.43242,30.86501 -3.74786,28.38761 23.47294,-40.35961 -7.3867,48.43125 -10.44048,19.6531 9.62152,33.42644 4.46447,42.19332 10.44492,72.15761 9.66209,31.85165 19.55013,17.2424 11.43291,47.0876 9.95477,21.36668 20.29253,-41.5239 -2.37486,-34.64328 2.7267,-23.98405 18.95865,12.8453 11.00004,-16.48845 4.17491,-12.78179 -20.48053,13.72377 -4.61239,-16.06245 4.21909,-26.90507 -13.67137,-83.38156 23.54278,-86.97839 3.86423,15.04689 25.03634,54.1787 40.382,35.87848 10.44938,-30.19581 -5.29679,38.91392 8.98713,6.52566 -2.04424,-25.06864 17.11304,-12.75535 37.3885,-9.29857 11.00078,-9.56782 21.16096,-1.67278 17.99943,6.97495 2.69803,-15.45607 25.39986,17.46547 20.52275,-7.99126 -13.36698,1.32809 2.45198,-31.80552 8.83346,-23.28924 2.2815,-14.6026 28.08322,12.42183 26.2704,-17.9406 2.09366,-1.58933 -23.28764,-38.98223 -20.07537,-48.27885 -1.07174,-18.22161 -44.20054,-64.20458 -2.5797,-75.83112 20.43396,-1.49394 1.90177,44.66118 19.77147,45.00878 -3.06262,22.80558 20.92862,44.32177 17.69681,66.4665 -14.22377,1.53803 1.86275,14.12885 13.31012,13.3254 -14.41363,24.48929 20.04444,27.72193 25.57313,46.32164 -5.07322,28.12563 -0.57682,49.65048 -12.38761,70.93596 7.02038,28.54725 -19.77689,-15.10271 -25.35107,1.25394 25.09779,-1.10773 21.01696,71.64751 -6.44003,34.3047 2.98723,24.28574 -9.10396,-11.02287 2.35562,-5.32746 -10.25756,-9.2515 -8.86208,-34.00001 -13.68823,-3.6418 14.1089,23.05966 -2.82714,49.16269 -4.3724,11.67292 -16.06881,-3.92676 -9.80042,-41.24268 -14.75871,-0.58286 9.38856,34.99588 -14.56093,6.88415 -27.4835,13.35947 -11.72645,14.53088 -34.30401,-29.39013 -29.96702,-11.95936 -17.10118,10.89528 -7.28851,32.29941 -24.59639,40.94324 0.33681,16.58481 -13.25808,45.45141 -13.1366,40.32656 16.94052,-8.65978 -13.36613,24.51177 16.50641,18.04358 21.44095,6.1126 35.70674,55.91815 38.34498,27.87986 -2.77434,-14.34123 16.69039,-39.41847 35.19943,-38.125 -2.61481,13.84393 32.2414,24.63644 38.95124,40.6097 19.58573,-12.65111 22.76817,-26.37266 19.05193,-52.93415 24.19127,-2.12099 30.49643,-33.46798 31.85322,-64.42354 23.12509,15.08657 40.85108,4.3882 29.21996,-27.79524 -6.94738,-27.44138 -5.71026,-41.38374 -17.02754,-62.23274 -2.58329,-22.03426 -19.86315,-61.2278 -40.6836,-85.87654 -25.22338,-23.67647 -5.5034,-59.78237 17.16786,-54.2225 -7.07676,-9.29462 -12.84342,-29.0769 1.32248,-34.2189 27.73201,-26.35768 17.66195,50.20743 33.27793,65.82454 8.91052,34.63199 22.90329,72.34773 27.76075,106.76377 15.06188,31.68096 23.15659,79.38343 25.75997,119.02121 1.28324,15.30119 2.43924,33.15673 3.85225,46.95072 z m -9.05632,-36.06067 c -5.06995,9.69307 9.75194,-0.52305 0,0 z M 925.786,746.9437 c -6.72706,5.12173 6.36757,2.92944 0,0 z m -6.875,21.25 c -4.5702,1.5117 4.45286,3.08287 0,0 z m -2.5,-323.125 c -4.5702,1.5117 4.45286,3.08287 0,0 z m -16.14109,154.93269 c -6.76526,11.31019 10.97603,1.14437 0,0 z m 2.42203,-178.60132 c -9.75608,-9.7187 2.40616,13.38884 0,0 z m -0.96844,-9.99174 c -9.14361,2.31333 5.12163,4.97323 0,0 z m -4.81771,-32.87609 c -1.41761,4.60198 2.17703,2.29623 0,0 z m -2.44357,-7.83854 c -4.4313,3.83521 6.16009,0.73662 0,0 z m -4.2524,377.5362 c -8.66838,-4.13814 5.87695,9.63717 0,0 z M 867.661,782.5687 c -4.57615,6.832 4.69397,4.6506 0,0 z m -10,-276.25 c -4.62987,3.20393 4.48151,4.80534 0,0 z m -2.33565,15.71296 c -2.10541,15.42557 -1.87951,-1.04474 0,0 z M 842.661,434.4437 c -4.62987,3.20393 4.48151,4.80534 0,0 z m -3.05122,110 c -8.48385,2.22113 6.75729,3.86449 0,0 z m -2.50604,9.25634 c -12.59167,13.98467 8.0689,1.40982 0,0 z M 837.661,689.4437 c -4.48151,4.80534 4.62987,3.20393 0,0 z m -0.99976,-123.63901 c -12.07657,-8.54112 6.64694,14.76561 0,0 z M 836.411,518.8187 c -4.60593,6.55355 4.60593,6.55355 0,0 z m -12.04895,22.49742 c -5.89627,-3.42527 3.04229,13.09516 0,0 z m -1.20626,-159.03388 c -1.4176,4.60195 2.17702,2.29624 0,0 z m -7.3857,413.85738 c -16.92618,3.4791 7.32447,17.34093 0,0 z m 0.0937,-273.90981 c -10.9319,9.39431 7.99972,19.79856 -5e-5,0 z m -0.70284,299.71389 c -4.45286,3.08287 4.5702,1.5117 0,0 z m -1.25,-454.65891 c -12.12835,-35.05164 2.62482,32.85475 0,0 z m -4.51008,189.5468 c -9.21142,3.72983 8.03212,11.62839 0,0 z m -1.19973,-24.26289 c -16.47684,-7.29455 12.59767,23.17933 0,0 z m -1.79019,279.375 c -4.48432,3.19368 4.48432,3.19368 0,0 z m -3.19878,-302.5 c -6.12861,3.85642 8.60447,3.01912 0,0 z m -1.80122,45 c -4.62987,3.20393 4.48151,4.80534 0,0 z m -0.74445,-41.44328 c -11.4596,2.80418 9.04979,19.46778 0,0 z m 0.19323,-8.55672 c -4.26803,2.99123 2.39428,5.06056 0,0 z m -2.61382,-5.43667 c -6.45119,5.46553 8.52659,0.68933 0,0 z m 0.73679,-27.37583 c -10.90639,-10.33249 4.53333,21.43532 0,0 z m -0.38425,-38.12559 c -6.78994,6.70336 5.9058,4.09363 0,0 z m -3.23506,87.12768 c -16.51907,-1.17466 -4.81994,20.93154 0,0 z m -0.45244,-60.93959 c -9.32912,-4.55085 6.74604,13.38286 0,0 z m -2.71656,-16.36851 c -14.80113,-0.87389 4.70687,16.15511 0,0 z m -2.16394,96.11851 c -7.33213,11.65442 4.48954,7.61311 0,0 z m -7.98074,3.73857 c -3.89773,8.36156 6.0236,-1.63511 0,0 z m -6.47783,287.51143 c -15.33563,5.55906 4.21079,5.60629 0,0 z m -3.66614,-280.91146 c -1.4176,4.60195 2.17702,2.29624 0,0 z m -17.47324,0.46762 c -25.04662,-18.00028 -11.8807,32.51515 0,0 z m -3.02155,-6.43116 c -4.48151,4.80534 4.62987,3.20393 0,0 z m -2.53221,-16.4827 c -9.74151,3.325 11.52945,2.42865 0,0 z m -6.21779,-60.3923 c -4.48432,3.19368 4.48432,3.19368 0,0 z m -1.04166,-174.375 c -5.32192,3.25244 7.21829,3.74584 0,0 z m -7.94933,414.82285 c -3.07503,-27.04353 -47.50718,-37.70161 -50.92727,-11.08785 -9.28106,-4.47229 38.4671,61.23167 8.11236,40.45317 -14.13275,-45.88217 -16.5229,43.8433 -28.70519,25.00247 -9.8378,26.27941 44.06742,9.19937 58.13178,-6.06569 10.99278,-11.0809 20.48435,-33.13298 13.38832,-48.3021 z m -1.50027,55.80215 c -20.70928,19.50657 -54.42298,26.49586 -74.29151,21.03698 -4.72526,24.61149 37.31305,20.38085 51.83241,9.18047 11.87523,0.28643 24.30556,-21.20116 22.4591,-30.21745 z m -35.56532,29.72984 c -14.4588,4.23554 4.75402,-11.99039 0,0 z m 35.92705,-240.10032 c -1.72296,8.94287 4.51102,3.46048 0,0 z m -2.92169,12.87048 c -4.2935,2.91712 2.38196,3.60028 0,0 z m -5.49044,-104.24624 c -3.88025,3.12855 3.76513,4.63896 0,0 z m -6.45834,334.87124 c -4.759,4.48536 4.92796,1.55233 0,0 z M 705.82604,326.50703 c -9.05374,1.87367 6.58197,6.10503 0,0 z m -0.57575,-48.31333 c -13.44012,4.03703 7.10834,13.3082 0,0 z m -3.83929,350 c -4.62987,3.20393 4.48151,4.80534 0,0 z m -1.80122,-13.75 c -4.2935,2.91712 2.38196,3.60028 0,0 z M 696.411,481.3187 c -4.5702,1.5117 4.45286,3.08287 0,0 z m -1.5625,-174.35586 c -12.38393,2.58254 7.16825,5.11887 0,0 z m -1.9689,319.65654 c -8.90251,9.52486 6.22132,29.1107 0,0 z m -4.7917,45.85237 c -15.92827,6.54892 15.7159,7.70736 0,0 z m 0.8231,-16.15305 c -4.759,4.48536 4.92796,1.55233 0,0 z M 674.5875,241.98644 c -9.2702,2.32053 6.20691,13.45057 0,0 z m -8.271,56.20726 c -2.10716,5.18771 5.82039,4.77932 0,0 z m 0.52576,-41.46408 c -12.48056,-6.5848 6.68418,13.84081 0,0 z m -3.61017,10.64543 c -8.3351,1.05538 7.63777,12.96316 0,0 z m -8.712,529.12273 c -18.925,-6.3511 8.47008,17.79444 0,0 z M 634.79075,198.06395 c -2.71279,6.34494 6.69497,-1.27785 0,0 z m -0.64538,301.66621 c -5.80239,5.96018 6.49811,4.4343 0,0 z M 632.661,586.9437 c -17.60451,4.23017 8.22851,16.7629 0,0 z m -5.06489,48.71527 c -15.18815,5.78153 9.01544,33.70813 0,0 z M 630.161,623.1937 c -4.48432,3.19368 4.48432,3.19368 0,0 z m -7.5,-56.25 c -4.5702,1.5117 4.45286,3.08287 0,0 z m -0.82785,290.9375 c -2.02885,6.88353 2.1878,1.24928 0,0 z M 620.8882,318.74708 c -9.97654,-3.32951 7.69238,17.73961 0,0 z m -0.65342,-19.30338 c -9.97547,5.76651 6.4603,3.438 0,0 z m -0.90163,382.1875 c -2.02885,6.88353 2.1878,1.24928 0,0 z m 0.0726,-9.34896 c -1.41761,4.60195 2.17702,2.29625 0,0 z m -3.93227,152.21437 c -10.47518,34.87096 -33.61074,15.41571 -13.6533,-7.69441 16.53958,-31.25824 -26.91406,-25.52156 -2.23638,-61.33231 6.73439,-24.21273 7.85514,-70.56017 0.86299,-82.53157 -20.04491,50.57247 -53.45852,109.71541 -112.28851,119.39342 -51.67405,2.3441 -91.0458,-41.11141 -111.1223,-84.13804 -20.85326,-40.85732 -28.94047,48.00145 -51.875,56.87825 -16.97053,27.07387 -51.15427,46.50152 -84.18484,45.09674 -31.34574,-3.95469 -50.94542,-32.15169 -72.19586,-52.09514 -21.18683,28.50854 -5.20944,44.30798 21.8265,48.13891 3.52612,12.79109 31.4581,43.95559 3.3042,39.54358 27.27964,30.72708 64.45024,55.86096 102.57569,72.10937 37.24168,5.79021 85.22429,12.66878 117.26719,-7.32068 42.4311,-4.54987 86.70076,-1.66 128.64867,-14.17368 36.14076,-1.6687 53.54481,-42.76628 73.98015,-65.9896 l -0.9092,-5.88459 z m -43.56358,1.6975 c -3.64064,-7.66826 -1.77123,0.0978 0,0 z m -255.36499,15.0405 c 5.62462,-16.46437 32.24631,6.07034 50.1503,6.41026 17.90399,0.33992 49.30702,-24.28132 54.67207,-5.6598 5.36505,18.62152 -35.55722,26.5682 -54.41928,26.00789 -18.86205,-0.5603 -56.02771,-10.29398 -50.40309,-26.75835 z m -5.62596,68.20909 c -13.49736,-5.57826 5.47676,-6.35552 0,0 z M 173.2122,793.1937 c -4.53321,-3.88266 6.29427,-2.37196 0,0 z m 441.94878,-474.375 c -4.57019,1.51169 4.45286,3.08288 0,0 z m -5.5625,31.95915 c -1.106,7.10786 11.23418,-0.14473 0,0 z m 3.21555,-75.08415 c -13.24553,5.70474 9.86198,9.08763 0,0 z m -0.0863,45.06519 c -7.07061,1.32677 4.50036,13.89585 0,0 z m -2.73427,-29.87972 c -14.87945,4.59473 -2.076,38.41127 0,0 z m -2.33253,157.93953 c -3.48563,13.17671 4.34724,-5.26249 0,0 z m -4.0625,34.90575 c -11.64681,4.96039 13.63549,11.30018 0,0 z m -0.70313,-12.74429 c -6.10704,2.34542 7.98594,4.30382 0,0 z m 0.18012,-149.07082 c -14.16313,-10.61305 2.17584,18.213 0,0 z m 0.95095,-41.76929 c -16.06389,1.84461 3.05274,14.44462 0,0 z m -3.24044,333.85161 c -9.54103,-20.75364 -12.12958,-40.346 -3.53547,-46.10978 -7.23163,-23.89159 -14.95404,-24.77605 -12.58819,-11.87568 -7.75559,-27.44968 -28.79297,-65.94618 -54.80609,-71.5625 -15.85509,-6.46964 -11.64601,-31.53695 -25.89614,-23.79472 -10.22756,-38.64958 -28.23703,-0.52354 -44.32339,-13.17415 -36.34389,2.50943 -65.36049,43.27858 -73.99397,77.36282 -2.07409,22.43399 7.77557,36.87751 -5.43265,41.78281 -5.57434,19.20923 -3.09752,103.36867 6.26334,43.54365 4.36001,30.09489 -10.03847,75.13803 17.84812,106.42437 14.92812,35.87115 51.24773,72.82606 93.5973,58.15128 45.01632,-10.42043 64.34866,-57.88064 86.2098,-93.53849 7.89544,-20.70911 17.90625,-46.10396 16.65734,-67.20961 z m -11.7805,-47.04796 c -5.82039,-4.77932 2.10716,-5.18771 0,0 z m -92.17714,-8.75 c -33.36884,-12.13043 0.64095,-42.70248 0,0 z m -5.26431,-12.5 c -9.09257,4.52195 3.09387,5.94541 0,0 z m -13.9362,-11.85451 c -14.73474,17.84073 -17.65098,-28.89411 -2.30544,0.60451 -2.03383,-4.56798 6.07162,-3.48564 2.30544,-0.60451 z m -9.89072,163.75367 c -18.3281,28.19847 -74.38593,37.13501 -60.64062,-12.08851 11.96887,-29.59033 42.81641,-46.42416 56.05634,-9.61899 0.76343,2.7154 12.50545,23.00744 4.58428,21.7075 z m -7.57613,-56.27416 c -4.45286,-3.08286 4.57018,-1.5117 0,0 z m -4.3547,-115.15571 c -18.38738,2.99725 6.40573,-9.01458 0,0 z m -62.77008,69.94565 c -10.25707,22.24056 -4.66948,-53.10931 0.0324,-8.53994 l -0.0324,8.53994 2e-5,0 z m 207.12478,-1.03994 c -4.69397,4.6506 4.57615,6.832 0,0 z m -2.5,-15 c -4.7,7.94971 4.53445,5.92793 0,0 z m -2.34512,-229.16731 c -6.22296,-1.21069 3.45508,11.20752 0,0 z m -13.35359,7.29231 c -4.53321,3.88266 6.29427,2.37196 0,0 z m -3.49651,8.51997 c -8.95026,0.68756 9.99418,13.50192 0,0 z m 0.44529,-6.01997 c -4.48432,3.19368 4.48432,3.19368 0,0 z m -5.625,126.25 c -7.21964,-1.45953 7.58443,12.87658 0,0 z m -1.875,29.375 c -4.92796,1.55233 4.759,4.48536 0,0 z m -1.80122,-5.625 c -4.2935,2.91712 2.38196,3.60028 0,0 z m -2.02255,-167.5 c -4.53323,3.88267 6.29425,2.37194 0,0 z m -5.55123,2.5 c -6.55874,2.96694 6.60263,1.08176 0,0 z m -4.375,-151.25 c -4.48432,3.19368 4.48432,3.19368 0,0 z m -35.23438,-38.35389 c -2.14912,2.14316 6.98822,-1.07921 0,0 z m -2.99478,92.10389 c -5.56335,4.36732 6.67378,4.43226 0,0 z m -24.47966,171.38011 c -57.18467,-5.60186 13.78474,38.75192 0,0 z M 493.286,405.6937 c -6.72647,4.79052 6.72647,4.79052 0,0 z m -3.125,32.5 c -4.45286,3.08287 4.5702,1.5117 0,0 z m -2.85976,-34.71904 c -15.86931,1.78447 8.58218,16.30608 0,0 z m -1.7984,-6.87434 c -3.63349,5.27829 11.27435,-0.31433 0,0 z M 467.54105,228.74456 c -11.66657,0.61428 4.7261,18.19474 0,0 z m -8.94255,-61.33872 c -19.98052,3.72464 9.77234,6.75191 0,0 z M 446.411,399.4437 c -4.56642,4.87898 4.56642,4.87898 0,0 z m -3.71009,-6.85034 c -13.1393,27.03731 -25.64886,36.47774 -38.90981,63.10034 -16.11,16.02426 -22.72399,-39.40933 -37.02627,-0.93181 -0.84298,11.22512 -13.88436,-12.31125 -14.96776,6.74684 -38.48065,-7.0701 14.66714,44.06224 6.65348,54.95324 0.30535,18.05908 -23.11313,-29.3487 -11.41455,3.32325 -14.9315,19.959 -17.46181,-41.2428 -28.85332,-51.50577 -17.53268,-14.38942 -28.3295,-40.05899 -52.77902,-29.27879 -14.78227,9.1118 -31.62583,39.2206 -51.52216,31.83885 -23.3836,4.16309 -41.271,44.49491 -46.37712,71.33061 -11.93169,39.05651 -21.59567,86.20917 -3.61729,123.52358 1.89296,25.7776 13.30855,58.68088 38.77391,76.36893 -25.17316,-42.15131 -34.87075,-92.91202 -23.72207,-141.43283 0.61435,-26.14707 10.27444,-53.27324 16.28478,-72.70176 -1.51963,-20.87572 28.60163,-32.61301 6.16143,-11.6253 -1.0719,22.58699 -12.10224,42.26724 -13.88878,68.86868 -10.10599,30.87546 -2.78076,70.39854 2.78761,105.36171 11.63929,32.05993 27.80517,81.84808 71.32198,76.06983 50.8532,-3.96641 83.52329,-51.36538 97.60045,-96.21744 -4.05838,-36.93688 -25.27975,46.10681 -43.97419,51.55818 -13.62941,10.53508 22.92903,-45.30328 25.52664,-61.61471 18.75685,-37.75815 17.93257,-80.60683 2.11702,-119.14196 9.86001,-14.10981 16.48203,30.58351 16.02811,-10.26301 9.22838,-12.41421 16.97782,-41.70284 8.00055,-39.24159 19.4459,30.20611 39.52282,-54.01887 61.11141,-61.62844 16.70182,-5.76802 18.14312,-18.48043 14.68497,-37.46063 z m -47.40515,75.22609 c -10.93685,2.06599 8.63793,-10.28483 0,0 z M 353.911,470.6937 c -3.82133,-8.85773 4.43446,2.23406 0,0 z m -8.75,55 c -4.45286,-3.08286 4.57018,-1.5117 0,0 z m -1.875,10 c -6.95974,2.63201 6.91532,-8.81814 0,0 z m -81.42128,163.93256 c -18.02887,52.73022 -81.69768,-4.97003 -49.45136,-39.72171 29.59828,-37.78623 57.443,8.53833 49.45136,39.72171 z m -20.71325,-2.98589 c -13.86844,7.4063 11.73123,2.71025 0,0 z M 235.786,651.9437 c -6.58623,3.09916 6.58623,3.09916 0,0 z m 12.26127,-133.65436 c -17.79666,0.83888 -20.40464,13.44138 -35.4333,34.03669 -3.66528,-17.19266 9.52555,-25.831 22.3615,-36.12199 2.76985,-2.64478 12.66602,-0.46722 13.0718,2.0853 z m -34.86351,-18.35438 c -9.28531,-0.58363 4.68161,-11.15012 0,0 z m -4.95167,0.32739 c -11.15704,0.69675 8.12478,-8.72262 0,0 z M 411.411,409.4437 c -4.48432,3.19368 4.48432,3.19368 0,0 z m -10.07377,3.75 c -6.55102,10.44775 6.976,1.00773 0,0 z m -5.14348,16.80605 c -17.41196,2.97609 8.79381,12.21704 0,0 z m 0.92215,-11.73974 c -20.3421,0.31663 7.25634,13.40154 0,0 z m -10.88696,12.11575 c -4.85056,10.68468 7.35979,-0.65551 0,0 z M 371.1719,248.95164 c -25.60057,-4.4343 -39.36917,52.09839 -14.71438,14.23852 -5.33651,-8.58656 29.15444,-4.57009 14.71438,-14.23852 z m -1.66611,191.76713 c -5.37229,5.89052 6.76449,-1.44247 0,0 z m -5.51666,-28.54069 c -5.09998,1.8357 7.77978,5.50487 0,0 z m 0.34402,41.95312 c -2.02885,6.88353 2.1878,1.24928 0,0 z M 362.036,420.6937 c -8.2632,7.13402 7.2616,15.16161 0,0 z m -9.625,92.25 c -2.96839,7.8304 5.63476,-0.16406 0,0 z m -7.25,-27.25 c -4.48432,3.19368 4.48432,3.19368 0,0 z m -4.375,0.79796 c -6.24877,5.2659 6.34185,0.73074 0,0 z M 336.411,181.3187 c -4.57019,1.51169 4.45286,3.08288 0,0 z m -5,225.625 c -4.57615,6.832 4.69397,4.6506 0,0 z m -5,70 c -4.62987,3.20393 4.48151,4.80534 0,0 z m -2.41074,278.75 c -21.47843,15.43423 -7.06337,16.20337 0,0 z m -1.21865,-329.84765 c -8.27444,-4.01397 3.69044,10.26028 0,0 z m -6.50821,-26.1467 c -29.2112,20.02398 5.02507,27.97566 0,0 z m -4.8624,14.74435 c -4.63387,2.06258 4.70707,-6.31908 0,0 z m 3.75,-103.75 c -4.57019,1.51169 4.45286,3.08288 0,0 z m -3.75,11.25 c -4.48432,3.19368 4.48432,3.19368 0,0 z m -8.34506,441.31199 c -14.60454,6.11916 -51.87971,26.34219 -13.80392,14.62734 3.45639,-3.70503 36.19799,-22.72754 13.80392,-14.62734 z M 305.764,432.2967 c -27.98471,-23.17387 -24.81938,6.21523 2.02624,12.96006 4.34566,-1.89724 1.66664,-11.34098 -2.02624,-12.96006 z m 1.272,-179.103 c -6.72647,4.79052 6.72647,4.79052 0,0 z m -9.2408,158.67817 c -9.55812,11.12175 12.68913,-1.13591 0,0 z m 3.59541,-68.06577 c -5.97201,-8.44311 1.66641,11.91668 0,0 z m -2.71399,-150.21629 c -2.14912,2.14316 6.98822,-1.07921 0,0 z M 293.911,784.4437 c -4.48432,3.19368 4.48432,3.19368 0,0 z m -2.5,-517.5 c -4.48432,3.19368 4.48432,3.19368 0,0 z m -1.14584,518.75 c -40.89218,15.71772 -85.12939,-19.09093 -108.95646,-50.59537 -28.42887,-39.25817 -7.13697,26.67165 10.5576,35.06671 22.65134,25.84024 46.97146,39.89651 83.92905,26.7786 2.1738,-2.10906 17.54233,-6.98684 14.46981,-11.24994 z m -5.1233,-573.54166 c -14.05257,-0.33016 3.46099,12.19093 0,0 z M 278.286,341.9437 c -6.47163,3.63631 6.5198,3.27803 0,0 z m -7.10938,-17.10389 c -2.14912,2.14316 6.98822,-1.07921 0,0 z M 270.786,292.46396 c -18.16335,-17.89023 -21.46408,27.34284 -33.95074,40.08396 -8.22566,40.90612 22.55519,-22.63542 34.53471,-34.08985 l 1.08259,-4.12987 z m -3.125,41.97974 c -4.57019,1.51169 4.45286,3.08288 0,0 z m -5.77565,-104.25984 c -12.11142,7.62217 4.82476,10.30214 0,0 z M 258.911,335.0687 c -4.92796,1.55233 4.759,4.48536 0,0 z m -15.07377,34.375 c -4.73343,5.48242 6.34468,2.71291 0,0 z m 0.0738,-132.5 c -17.9667,0.12257 -20.55183,31.69241 0,0 z m -6.25,149.89776 c -10.81563,0.1561 3.80212,14.13612 0,0 z m -8.87953,-30.26824 c -1.72295,8.94293 4.51101,3.46043 0,0 z m -17.15941,392.43649 c -12.05342,-3.85321 9.0766,12.57505 0,0 z M 211.41103,418.1937 c -3.74674,3.91409 4.928,6.50408 0,0 z m -0.35722,-34.6875 c -25.66321,1.65412 -30.08614,53.32235 -4.17399,14.43475 1.21081,-5.15743 7.60623,-8.26794 4.17399,-14.43475 z m -2.85943,43.4375 c -6.51267,4.96154 7.56466,6.69998 0,0 z m -13.39171,12.77766 c -19.08443,16.51194 -14.77453,14.85436 2.50083,8.15984 1.64368,5.66263 6.79081,-17.82718 -2.50083,-8.15984 z m -2.16665,390.97234 c -18.94818,-9.17042 9.29504,25.31191 0,0 z m 0.025,-118.125 c -5.07508,7.21965 3.95794,1.94662 0,0 z m -2.26563,-279.08854 c -5.56206,4.20273 6.55756,4.54214 0,0 z m -0.98959,382.55208 c -1.41761,4.60195 2.17702,2.29625 0,0 z m -1.74477,7.78646 c -4.5702,1.5117 4.45286,3.08287 0,0 z m -10.12608,-363.75 c -9.13491,8.54837 11.12399,7.25151 0,0 z m 1.0074,14.77215 c -5.80286,1.67585 5.22275,15.9026 0,0 z m 0.52594,-38.42496 c -19.82546,7.58863 5.49464,11.76625 0,0 z m -0.61821,-148.9572 c -29.2997,3.46209 -33.7269,48.43186 -7.03905,15.27859 0.5916,-6.12815 8.26055,-12.55265 7.03905,-15.27859 z m -5.86103,191.27329 c -8.81013,-32.67576 -31.26767,34.97527 -22.47882,46.91443 -11.37616,43.92741 35.30451,-47.44235 22.47882,-46.91443 z m 0.59282,-203.03828 c -5.56334,4.36733 6.67378,4.43225 0,0 z m -2.94706,188.75 c -6.29427,2.37196 4.53321,3.88266 0,0 z m -6.35959,244.5533 c -17.75109,5.58013 11.43071,20.64501 0,0 z m -3.1431,-5.37195 c -11.91349,1.55153 9.74766,5.69419 0,0 z m -9.33821,-16.05635 c -6.61809,3.4704 8.279,6.12716 0,0 z m -2.11354,-145.97893 c -6.56767,10.44858 7.29516,3.05167 0,0 z m -0.92056,197.85393 c -4.2935,2.91712 2.38196,3.60028 0,0 z m -0.20399,-10.91146 c -1.4176,4.60195 2.17702,2.29624 0,0 z M 131.56276,405.06102 c -11.56854,22.77016 2.21595,24.44417 0,0 z m -1.27028,95.56232 c -24.34289,15.54168 3.93298,30.00866 0,0 z M 128.911,516.9437 c -4.48431,3.19368 4.48432,3.19368 0,0 z m -5,-86.25 c -4.48151,4.80534 4.62987,3.20393 0,0 z m -3.6856,23.75 c -17.73659,10.99726 6.22026,24.31215 0,0 z m -10.0644,28.64776 c -10.810885,-2.16307 2.37133,16.16358 0,0 z m -8.54926,71.62749 c -5.733847,10.83155 6.56948,21.86955 0,0 z M 41.905793,861.03224 c -1.417747,4.60184 2.176889,2.29639 0,0 z M 919.53571,793.94705 c -6.67258,5.17315 4.23031,-11.68105 0,0 z M 860.161,554.4437 c -3.82133,-8.85773 4.43446,2.23406 0,0 z m -3.75,-0.625 c -4.45286,-3.08286 4.57018,-1.5117 0,0 z m -7.03361,41.4298 c -31.0523,17.34528 -3.02173,-30.3759 0,0 z m -6.32028,-276.82043 c -1.07909,-6.98817 2.14285,2.14929 0,0 z M 837.661,311.9437 c -4.45286,-3.08288 4.57019,-1.51169 0,0 z m -3.02835,74.23912 c -9.02142,-7.77839 5.73988,-3.3429 0,0 z M 827.661,584.4437 c -4.48432,-3.19368 4.48432,-3.19368 0,0 z m -3.66362,18.07161 c -6.15646,-0.45637 4.15857,-3.9844 0,0 z M 816.411,351.3187 c -4.62986,-3.20392 4.48151,-4.80534 0,0 z m -6.25,71.875 c -7.57156,-1.66108 4.42927,-9.55116 0,0 z m -2.02898,-122.6638 c -6.78872,2.25973 6.94441,-10.61892 0,0 z m -2.21228,296.4138 c -4.07576,-4.88017 2.2189,-5.00997 0,0 z m -19.50874,58.75 c -4.48432,-3.19368 4.48432,-3.19368 0,0 z m -6.34938,-411.78571 c -8.02004,-4.73028 5.58053,-4.39593 0,0 z M 778.911,647.5687 c -4.62985,-3.20394 4.4815,-4.80531 0,0 z m -0.95664,11.43872 c -30.43281,10.8307 7.26409,-15.76897 0,0 z M 776.411,295.0687 c -4.48151,-4.80534 4.62986,-3.20392 0,0 z m -23.125,296.875 c -5.72039,-8.77508 6.79057,0.71646 0,0 z m -7.34695,-357.5 c -13.18828,-7.6349 6.22147,-2.95257 0,0 z m -3.27805,205.625 c -4.57018,-1.5117 4.45286,-3.08286 0,0 z M 728.36499,328.72141 c -20.43184,22.44673 -1.5956,-21.27632 4.09497,-1.77338 z m 1.06685,-9.3764 c -4.81746,-0.80408 5.68949,-1.26808 0,0 z M 721.411,611.9437 c -4.56642,-4.87898 4.56642,-4.87898 0,0 z m -2.5,18.75 c -3.82133,-8.85773 4.43446,2.23406 0,0 z m -3.71986,-282.86751 c -15.41441,9.35793 12.28456,-18.83793 0,0 z m -1.35392,272.2881 c -9.27973,-1.96903 3.25308,-7.59764 0,0 z m -2.42622,3.70441 c -4.45286,-3.08286 4.57018,-1.5117 0,0 z m -12.57378,-186.875 c -2.38196,-3.60028 4.2935,-2.91712 0,0 z m -14.92622,18.75 c -4.48432,-3.19368 4.48432,-3.19368 0,0 z m 0,-7.5 c -4.48432,-3.19368 4.48432,-3.19368 0,0 z m -1.29159,-25.17403 c -9.11425,7.60179 8.56835,-15.59748 0,0 z M 676.411,439.4437 c -4.45286,-3.08286 4.57018,-1.5117 0,0 z m -6.73126,-5.13504 c -7.98837,22.80177 -4.48845,-14.96307 0,0 z m -3.02983,-73.61496 c -14.44736,-4.45347 6.69597,-10.61228 0,0 z m -1.42641,68.5625 c -4.66853,-3.20896 3.84812,-2.94075 0,0 z m -8.9352,-121.12816 c -7.4911,-7.74104 7.15441,1.05299 0,0 z m -9.48119,-119.69996 c -1.0791,-6.98818 2.14286,2.14925 0,0 z m -2.16695,226.01562 c -6.65728,-4.43416 5.5725,-4.21986 0,0 z m -5.20671,-242.21366 c -13.78106,-10.16893 10.52402,-8.04259 0,0 z M 636.411,399.4437 c -4.56642,-4.87898 4.56642,-4.87898 0,0 z m -3.33334,-54.0625 c -6.40568,5.19458 1.489,-9.74061 0,0 z m -0.90792,62.8125 c -4.04425,-4.7083 2.17135,-6.89124 0,0 z M 626.411,167.99634 c -5.63425,-1.0939 5.63425,-1.0939 0,0 z m -6.1635,-1.91784 c -7.71923,-6.31416 8.67193,-1.36111 0,0 z m -23.84589,28.996 c -9.60227,-1.56933 -0.39752,-5.87399 0,0 z m -5.07916,-32.45107 c -25.06579,2.89 -54.40036,-7.07739 -12.53201,-6.89585 0.90122,1.3562 17.80173,2.0512 12.53201,6.89585 z m -8.4971,-5.67973 c -6.07934,3.92773 8.76737,6.86013 0,0 z m 0.14815,56.23086 c -12.98698,-1.83953 15.82885,-3.24006 0,0 z m -4.60956,-33.92399 c -6.65577,-4.66627 5.82709,-1.20113 0,0 z M 576.411,316.9437 c -4.62986,-3.20392 4.48151,-4.80534 0,0 z m -30.52084,-153.75 c -18.55218,-4.07294 17.85286,-5.78372 0,0 z m -25.30701,122.8125 c -2.02885,-6.88353 2.1878,-1.24928 0,0 z M 492.661,155.6937 c -4.56642,-4.87897 4.56642,-4.87897 0,0 z m -17.5,157.5 c -3.60105,11.23382 2.38586,-14.61365 0,0 z m -33.75,-12.23336 c -17.34743,-12.52085 -16.03017,-18.08957 -1.37298,-32.30771 3.35972,-9.17062 2.46854,36.54791 1.37298,32.30771 z m -9.49743,-37.39579 c -10.37905,5.0353 9.62301,-8.25356 0,0 z M 422.661,286.9437 c -4.9122,4.12802 4.19582,-7.83975 0,0 z m -1.5625,-115.08786 c -17.90757,-2.25081 10.61505,-3.62267 0,0 z m -14.34991,111.62855 c -17.33443,13.95662 9.07015,-18.01978 0,0 z m -4.91804,13.1546 c -8.22775,2.79873 4.68365,-9.19955 0,0 z M 400.23686,175.6531 c -14.14744,-0.2227 9.72958,-9.34657 0,0 z m -7.57586,-0.5844 c -9.0961,-9.40061 8.90479,6.47904 0,0 z m -2.5443,771.7101 c -21.80929,8.98566 12.96682,-13.69834 0,0 z m -1.9269,-769.5226 c -14.6276,4.71301 -1.00776,-4.85079 0,0 z m -2.27021,-6.18365 c -11.61076,1.68482 7.12222,-3.99234 0,0 z m -7.00859,7.12115 c -4.45286,-3.08288 4.57019,-1.51169 0,0 z m -2.57377,-5 c -2.38199,-3.60027 4.29348,-2.91713 0,0 z m -1.95367,5.36076 c -30.17522,12.07201 -22.81633,-3.32826 0,0 z m -3.6998,111.64798 c -10.2585,-6.27965 5.47379,-6.64806 0,0 z M 370.786,164.4437 c -6.58623,-3.09916 6.58623,-3.09916 0,0 z m -3.05123,11.25 c -6.29425,-2.37198 4.53324,-3.88264 0,0 z m -2.4874,-11.92839 c -6.15644,-0.45636 4.15859,-3.98441 0,0 z m -5.19528,8.8707 c -10.68689,-0.69265 6.55595,-5.20539 0,0 z m -2.22333,6.079 c -7.32745,1.05567 -3.19122,3.80154 5e-5,0 z M 355.161,166.3187 c -4.45286,-3.08288 4.57019,-1.51169 0,0 z m -7.58316,18.8014 c -6.70472,1.24375 5.37448,-5.82113 0,0 z M 181.411,266.9437 c -4.48432,-3.19368 4.48432,-3.19368 0,0 z M 88.441115,875.18215 c -8.245231,0.35194 4.422829,-5.95964 0,0 z"
       id="path3347"
       inkscape:connector-curvature="0"
       sodipodi:nodetypes="ccccccccccccccccccccccccccccccccccccccccccccccccccccccccccccccccccccccccccccccccccccccccccccccccccccccccccccccccccccccccccccccccccccccccccccccccccccccccccccccccccccccccccccccccccccccccccccccccccccccccccccccccccccccccccccccccccccccccccccccccccccccccccccccccccccccccccccccccccccccccccccccccccccccccccccccccccccccccccccccccccczzzzzccccccccccccccccccccccccccccccccccccccccccccccccccccccccccccccccccccccccccccccccccccccccccccccccccccccccccccccccccccccccccccccccccccccccccccccccccccccccccccccccccccccccccccccccccccccccccccccccccccccccccccccccccccccccccccccccccccccccccccccccccccccccccccccccccccccccccccccccccccccccccccccccccccccccccccccccccccccccccccccccccccccccccccccccccccccccccccccccccccccccccccccccccccccccccccccccccccccccccccccccccccccccccccccccccccccccccccccccccccccccccccccccccccccccccccccccccccccccc" />
    <flowRoot
       xml:space="preserve"
       id="flowRoot3350"
       style="font-style:normal;font-variant:normal;font-weight:normal;font-stretch:normal;font-size:625px;line-height:125%;font-family:Purisa;-inkscape-font-specification:Purisa;letter-spacing:0px;word-spacing:0px;fill:#333333;fill-opacity:1;stroke:none;stroke-width:1px;stroke-linecap:butt;stroke-linejoin:miter;stroke-opacity:1;"
       transform="translate(-68.571428,102.85714)"><flowRegion
         id="flowRegion3352"><rect
           id="rect3354"
           width="4171.4282"
           height="811.42853"
           x="1005.7143"
           y="138.07649"
           style="font-style:normal;font-variant:normal;font-weight:normal;font-stretch:normal;font-size:625px;font-family:Purisa;-inkscape-font-specification:Purisa;fill:#333333;fill-opacity:1;" /></flowRegion><flowPara
         id="flowPara3356"
         style="letter-spacing:-50px;fill:#333333;fill-opacity:1;">TripAround</flowPara></flowRoot>  </g>
</svg>
